<svg xmlns="http://www.w3.org/2000/svg" width="256" height="256" viewBox="0 0 256 256">
  <defs>
    <linearGradient id="gP" x1="0" y1="0" x2="0" y2="1"><stop offset="0%" stop-color="#8f80f2"></stop><stop offset="100%" stop-color="#5849c0"></stop></linearGradient>
    <filter id="fC" x="-30%" y="-30%" width="160%" height="160%"><feDropShadow dx="0" dy="4" stdDeviation="6" flood-color="#0a0a14" flood-opacity="0.30"></feDropShadow></filter>
    <clipPath id="cE"><rect x="60" y="78" width="132" height="128" rx="16"></rect></clipPath>
  </defs>
  <rect x="8" y="8" width="240" height="240" rx="56" fill="url(#gP)"></rect>
  <g transform="rotate(-9 128 132)"><rect x="74" y="74" width="120" height="120" rx="16" fill="#cdd3e6" filter="url(#fC)"></rect></g>
  <g transform="rotate(-3 128 132)"><rect x="68" y="76" width="124" height="124" rx="16" fill="#e6eaf4" filter="url(#fC)"></rect></g>
  <rect x="60" y="78" width="132" height="128" rx="16" fill="#f7f8fb" filter="url(#fC)"></rect>
  <g clip-path="url(#cE)">
    <rect x="60" y="78" width="132" height="38" fill="#6d5ae0"></rect>
    <circle cx="80" cy="97" r="7.5" fill="#f6b73c"></circle>
    <rect x="96" y="92" width="70" height="9" rx="4.5" fill="#ffffff" opacity="0.92"></rect>
    <rect x="76" y="132" width="100" height="9" rx="4.5" fill="#c9cfdd"></rect>
    <rect x="76" y="150" width="84" height="9" rx="4.5" fill="#c9cfdd"></rect>
    <rect x="76" y="176" width="58" height="18" rx="9" fill="#6d5ae0"></rect>
  </g>
</svg>